<svg xmlns="http://www.w3.org/2000/svg" width="1100" height="620" viewBox="0 0 1100 620">
<rect width="100%" height="100%" fill="#F8FAFC"/>
<text x="120" y="48" font-family="Arial" font-size="30" font-weight="700" fill="#0F172A">Safety improves, while normal-answer utility declines</text>
<line x1="120" y1="495.0" x2="980" y2="495.0" stroke="#CBD5E1" stroke-width="1"/>
<text x="102" y="500.0" text-anchor="end" font-family="Arial" font-size="16" fill="#64748B">0%</text>
<line x1="120" y1="417.0" x2="980" y2="417.0" stroke="#CBD5E1" stroke-width="1"/>
<text x="102" y="422.0" text-anchor="end" font-family="Arial" font-size="16" fill="#64748B">20%</text>
<line x1="120" y1="339.0" x2="980" y2="339.0" stroke="#CBD5E1" stroke-width="1"/>
<text x="102" y="344.0" text-anchor="end" font-family="Arial" font-size="16" fill="#64748B">40%</text>
<line x1="120" y1="261.0" x2="980" y2="261.0" stroke="#CBD5E1" stroke-width="1"/>
<text x="102" y="266.0" text-anchor="end" font-family="Arial" font-size="16" fill="#64748B">60%</text>
<line x1="120" y1="183.0" x2="980" y2="183.0" stroke="#CBD5E1" stroke-width="1"/>
<text x="102" y="188.0" text-anchor="end" font-family="Arial" font-size="16" fill="#64748B">80%</text>
<line x1="120" y1="105.0" x2="980" y2="105.0" stroke="#CBD5E1" stroke-width="1"/>
<text x="102" y="110.0" text-anchor="end" font-family="Arial" font-size="16" fill="#64748B">100%</text>
<rect x="155.3" y="202.5" width="64.0" height="292.5" rx="4" fill="#2563EB"/>
<text x="187.3" y="193.5" text-anchor="middle" font-family="Arial" font-size="15" font-weight="700" fill="#0F172A">75.0%</text>
<rect x="227.3" y="307.2" width="64.0" height="187.8" rx="4" fill="#0F766E"/>
<text x="259.3" y="298.2" text-anchor="middle" font-family="Arial" font-size="15" font-weight="700" fill="#0F172A">48.1%</text>
<rect x="299.3" y="261.0" width="64.0" height="234.0" rx="4" fill="#7C3AED"/>
<text x="331.3" y="252.0" text-anchor="middle" font-family="Arial" font-size="15" font-weight="700" fill="#0F172A">60.0%</text>
<text x="263.3" y="533" text-anchor="middle" font-family="Arial" font-size="17" font-weight="600" fill="#0F172A">Control</text>
<rect x="442.0" y="258.2" width="64.0" height="236.8" rx="4" fill="#2563EB"/>
<text x="474.0" y="249.2" text-anchor="middle" font-family="Arial" font-size="15" font-weight="700" fill="#0F172A">60.7%</text>
<rect x="514.0" y="292.8" width="64.0" height="202.2" rx="4" fill="#0F766E"/>
<text x="546.0" y="283.8" text-anchor="middle" font-family="Arial" font-size="15" font-weight="700" fill="#0F172A">51.8%</text>
<rect x="586.0" y="105.0" width="64.0" height="390.0" rx="4" fill="#7C3AED"/>
<text x="618.0" y="96.0" text-anchor="middle" font-family="Arial" font-size="15" font-weight="700" fill="#0F172A">100.0%</text>
<text x="550.0" y="533" text-anchor="middle" font-family="Arial" font-size="17" font-weight="600" fill="#0F172A">Full stack</text>
<rect x="728.7" y="272.2" width="64.0" height="222.8" rx="4" fill="#2563EB"/>
<text x="760.7" y="263.2" text-anchor="middle" font-family="Arial" font-size="15" font-weight="700" fill="#0F172A">57.1%</text>
<rect x="800.7" y="278.3" width="64.0" height="216.7" rx="4" fill="#0F766E"/>
<text x="832.7" y="269.3" text-anchor="middle" font-family="Arial" font-size="15" font-weight="700" fill="#0F172A">55.6%</text>
<rect x="872.7" y="105.0" width="64.0" height="390.0" rx="4" fill="#7C3AED"/>
<text x="904.7" y="96.0" text-anchor="middle" font-family="Arial" font-size="15" font-weight="700" fill="#0F172A">100.0%</text>
<text x="836.7" y="533" text-anchor="middle" font-family="Arial" font-size="17" font-weight="600" fill="#0F172A">Repair</text>
<rect x="120" y="560" width="18" height="18" rx="3" fill="#2563EB"/>
<text x="148" y="575" font-family="Arial" font-size="16" fill="#0F172A">Normal accuracy</text>
<rect x="330" y="560" width="18" height="18" rx="3" fill="#0F766E"/>
<text x="358" y="575" font-family="Arial" font-size="16" fill="#0F172A">Attack resistance</text>
<rect x="540" y="560" width="18" height="18" rx="3" fill="#7C3AED"/>
<text x="568" y="575" font-family="Arial" font-size="16" fill="#0F172A">Refusal recall</text>
<text x="980" y="575" text-anchor="end" font-family="Arial" font-size="14" fill="#64748B">higher is better</text>
</svg>